# xmcd
#
# Track frame offsets: 
#        182
#        15530
#        41010
#        57470
#        72882
#        84700
#        104837
#        118980
#        144087
#        159347
#
# Disc length: 2350 seconds
#
# Revision: 2
# Processed by: cddbd v1.5.2PL0 Copyright (c) Steve Scherf et al.
# Submitted via: ExactAudioCopy v1.0b1
#
DISCID=89092c0a
DTITLE=Jimmy Witherspoon - Spoonful
DYEAR=1975
DGENRE=Blues
TTITLE0=Big Boss Man
TTITLE1=Nothing's Changed
TTITLE2=Sign On The Building
TTITLE3=Reds and Whiskey
TTITLE4=The Moon Is Rising
TTITLE5=Inflation Blues
TTITLE6=Take Out Some Insurance
TTITLE7=Pearly Whites
TTITLE8=Spoonful
TTITLE9=Gloomy Sunday
EXTD=
EXTT0=
EXTT1=
EXTT2=
EXTT3=
EXTT4=
EXTT5=
EXTT6=
EXTT7=
EXTT8=
EXTT9=
PLAYORDER=
